<svg width="22" height="23" viewBox="0 0 22 23" fill="none" xmlns="http://www.w3.org/2000/svg">
<path d="M12.1317 1.02165C11.8155 0.753622 11.4145 0.606506 11 0.606506C10.5855 0.606506 10.1845 0.753622 9.86833 1.02165L1.11833 8.44515C0.924579 8.60942 0.768907 8.81389 0.662129 9.04437C0.555351 9.27485 0.500027 9.52581 0.5 9.77982V20.75C0.5 21.2141 0.684375 21.6592 1.01256 21.9874C1.34075 22.3156 1.78587 22.5 2.25 22.5H7.79167C8.02373 22.5 8.24629 22.4078 8.41038 22.2437C8.57448 22.0796 8.66667 21.857 8.66667 21.625V14.3333H13.3333V21.625C13.3333 22.108 13.7253 22.5 14.2083 22.5H19.75C20.2141 22.5 20.6592 22.3156 20.9874 21.9874C21.3156 21.6592 21.5 21.2141 21.5 20.75V9.77982C21.5 9.52581 21.4446 9.27485 21.3379 9.04437C21.2311 8.81389 21.0754 8.60942 20.8817 8.44515L12.1317 1.02165Z" fill="white"/>
</svg>
