<svg width="42" height="42" viewBox="0 0 42 42" fill="none" xmlns="http://www.w3.org/2000/svg">
<circle opacity="0.3" cx="21" cy="21" r="21" fill="black"/>
<path d="M12.6 19.4C13.9238 19.4 15 18.3238 15 17C15 15.6763 13.9238 14.6 12.6 14.6C11.2763 14.6 10.2 15.6763 10.2 17C10.2 18.3238 11.2763 19.4 12.6 19.4ZM29.4 19.4C30.7238 19.4 31.8 18.3238 31.8 17C31.8 15.6763 30.7238 14.6 29.4 14.6C28.0763 14.6 27 15.6763 27 17C27 18.3238 28.0763 19.4 29.4 19.4ZM30.6 20.6H28.2C27.54 20.6 26.9438 20.8663 26.5088 21.2975C28.02 22.1263 29.0925 23.6225 29.325 25.4H31.8C32.4638 25.4 33 24.8638 33 24.2V23C33 21.6763 31.9238 20.6 30.6 20.6ZM21 20.6C23.3213 20.6 25.2 18.7213 25.2 16.4C25.2 14.0788 23.3213 12.2 21 12.2C18.6788 12.2 16.8 14.0788 16.8 16.4C16.8 18.7213 18.6788 20.6 21 20.6ZM23.88 21.8H23.5688C22.7888 22.175 21.9225 22.4 21 22.4C20.0775 22.4 19.215 22.175 18.4313 21.8H18.12C15.735 21.8 13.8 23.735 13.8 26.12V27.2C13.8 28.1938 14.6063 29 15.6 29H26.4C27.3938 29 28.2 28.1938 28.2 27.2V26.12C28.2 23.735 26.265 21.8 23.88 21.8ZM15.4913 21.2975C15.0563 20.8663 14.46 20.6 13.8 20.6H11.4C10.0763 20.6 9 21.6763 9 23V24.2C9 24.8638 9.53625 25.4 10.2 25.4H12.6713C12.9075 23.6225 13.98 22.1263 15.4913 21.2975Z" fill="#BDBDBD"/>
</svg>
