<svg width="42" height="42" viewBox="0 0 42 42" fill="none" xmlns="http://www.w3.org/2000/svg">
<circle opacity="0.3" cx="21" cy="21" r="21" fill="black"/>
<path fill-rule="evenodd" clip-rule="evenodd" d="M24.5364 11.5896L15.8448 20.2968C15.7666 20.3716 15.7045 20.4616 15.6624 20.5612C15.6203 20.6609 15.599 20.7682 15.6 20.8764C15.5997 21.0997 15.6877 21.3141 15.8448 21.4728C18.9888 24.54 22.0188 27.5004 24.9348 30.354C25.0848 30.4944 25.6848 30.8436 26.148 30.3252C26.6112 29.8056 26.3304 29.3532 26.148 29.166L17.6664 20.8764L25.7628 12.7656C26.058 12.3588 26.034 11.9832 25.6908 11.6388C25.3476 11.2944 24.9624 11.2776 24.5364 11.5896Z" fill="#BDBDBD"/>
</svg>
