<svg width="28" height="28" viewBox="0 0 28 28" fill="none" xmlns="http://www.w3.org/2000/svg">
<g clip-path="url(#clip0_4_39)">
<path d="M9 1.0045H3C2.76205 0.979927 2.52461 1.05663 2.33796 1.21837C2.15131 1.3801 2.0301 1.61417 2 1.87102V27H10V1.87102C9.9699 1.61417 9.84869 1.3801 9.66204 1.21837C9.47539 1.05663 9.23795 0.979927 9 1.0045Z" fill="white"/>
<path d="M28 25.3192L21.7513 9.2152C21.7093 9.10714 21.646 9.00822 21.5649 8.92408C21.4838 8.83995 21.3865 8.77225 21.2787 8.72485C21.1708 8.67745 21.0545 8.65129 20.9363 8.64785C20.8181 8.64441 20.7003 8.66376 20.5898 8.7048L17.4024 9.9192V5.88C17.4024 5.64661 17.3075 5.42278 17.1386 5.25775C16.9698 5.09271 16.7408 5 16.502 5H12V27H17.4024V10.8872L23.6421 27L28 25.3192Z" fill="white"/>
</g>
<defs>
<clipPath id="clip0_4_39">
<rect width="28" height="28" fill="white"/>
</clipPath>
</defs>
</svg>
