<svg width="36" height="36" viewBox="0 0 36 36" fill="none" xmlns="http://www.w3.org/2000/svg">
<path d="M6 18C6 18.3978 6.15804 18.7794 6.43934 19.0607C6.72064 19.342 7.10218 19.5 7.5 19.5C7.89782 19.5 8.27936 19.342 8.56066 19.0607C8.84196 18.7794 9 18.3978 9 18C9 17.6022 8.84196 17.2206 8.56066 16.9393C8.27936 16.658 7.89782 16.5 7.5 16.5C7.10218 16.5 6.72064 16.658 6.43934 16.9393C6.15804 17.2206 6 17.6022 6 18ZM16.5 18C16.5 18.3978 16.658 18.7794 16.9393 19.0607C17.2206 19.342 17.6022 19.5 18 19.5C18.3978 19.5 18.7794 19.342 19.0607 19.0607C19.342 18.7794 19.5 18.3978 19.5 18C19.5 17.6022 19.342 17.2206 19.0607 16.9393C18.7794 16.658 18.3978 16.5 18 16.5C17.6022 16.5 17.2206 16.658 16.9393 16.9393C16.658 17.2206 16.5 17.6022 16.5 18ZM27 18C27 18.3978 27.158 18.7794 27.4393 19.0607C27.7206 19.342 28.1022 19.5 28.5 19.5C28.8978 19.5 29.2794 19.342 29.5607 19.0607C29.842 18.7794 30 18.3978 30 18C30 17.6022 29.842 17.2206 29.5607 16.9393C29.2794 16.658 28.8978 16.5 28.5 16.5C28.1022 16.5 27.7206 16.658 27.4393 16.9393C27.158 17.2206 27 17.6022 27 18Z" fill="white" stroke="white" stroke-width="2" stroke-linecap="round" stroke-linejoin="round"/>
</svg>
