<svg width="42" height="42" viewBox="0 0 42 42" fill="none" xmlns="http://www.w3.org/2000/svg">
<circle opacity="0.3" cx="21" cy="21" r="21" fill="black"/>
<path fill-rule="evenodd" clip-rule="evenodd" d="M17.4636 11.5896L26.1552 20.2968C26.2334 20.3716 26.2955 20.4616 26.3376 20.5612C26.3797 20.6609 26.401 20.7682 26.4 20.8764C26.4003 21.0997 26.3123 21.3141 26.1552 21.4728C23.0112 24.54 19.9812 27.5004 17.0652 30.354C16.9152 30.4944 16.3152 30.8436 15.852 30.3252C15.3888 29.8056 15.6696 29.3532 15.852 29.166L24.3336 20.8764L16.2372 12.7656C15.942 12.3588 15.966 11.9832 16.3092 11.6388C16.6524 11.2944 17.0376 11.2776 17.4636 11.5896Z" fill="#BDBDBD"/>
</svg>
