<svg width="42" height="42" viewBox="0 0 42 42" fill="none" xmlns="http://www.w3.org/2000/svg">
<circle opacity="0.3" cx="21" cy="21" r="21" fill="black"/>
<g clip-path="url(#clip0_4_100)">
<path d="M20 19.3333C20.923 19.3333 21.8252 19.0596 22.5926 18.5469C23.3601 18.0341 23.9582 17.3052 24.3114 16.4525C24.6646 15.5998 24.757 14.6615 24.577 13.7562C24.3969 12.851 23.9525 12.0195 23.2998 11.3668C22.6472 10.7142 21.8156 10.2697 20.9104 10.0897C20.0052 9.90961 19.0668 10.002 18.2141 10.3552C17.3614 10.7084 16.6326 11.3066 16.1198 12.074C15.607 12.8414 15.3333 13.7437 15.3333 14.6667C15.3333 15.9043 15.825 17.0913 16.7001 17.9665C17.5753 18.8417 18.7623 19.3333 20 19.3333ZM20 11.3333C20.6593 11.3333 21.3037 11.5288 21.8519 11.8951C22.4 12.2614 22.8273 12.782 23.0796 13.3911C23.3319 14.0001 23.3979 14.6704 23.2693 15.317C23.1406 15.9636 22.8232 16.5575 22.357 17.0237C21.8908 17.4899 21.2969 17.8073 20.6503 17.936C20.0037 18.0646 19.3335 17.9986 18.7244 17.7463C18.1153 17.494 17.5947 17.0667 17.2284 16.5186C16.8621 15.9704 16.6666 15.3259 16.6666 14.6667C16.6666 13.7826 17.0178 12.9348 17.643 12.3096C18.2681 11.6845 19.1159 11.3333 20 11.3333Z" fill="white"/>
<path d="M28.3133 24.2467C27.2442 23.1167 25.9558 22.2166 24.527 21.6015C23.0982 20.9863 21.5589 20.6691 20.0033 20.6691C18.4477 20.6691 16.9084 20.9863 15.4796 21.6015C14.0508 22.2166 12.7624 23.1167 11.6933 24.2467C11.4615 24.4942 11.3328 24.8208 11.3333 25.16V28.6667C11.3333 29.0203 11.4738 29.3594 11.7238 29.6095C11.9739 29.8595 12.313 30 12.6666 30H27.3333C27.6869 30 28.0261 29.8595 28.2761 29.6095C28.5262 29.3594 28.6666 29.0203 28.6666 28.6667V25.16C28.669 24.8217 28.5427 24.4953 28.3133 24.2467ZM27.3333 28.6667H12.6666V25.1533C13.6115 24.1584 14.7488 23.3662 16.0096 22.8248C17.2703 22.2835 18.628 22.0043 20 22.0043C21.372 22.0043 22.7297 22.2835 23.9904 22.8248C25.2511 23.3662 26.3885 24.1584 27.3333 25.1533V28.6667Z" fill="white"/>
</g>
<defs>
<clipPath id="clip0_4_100">
<rect width="24" height="24" fill="white" transform="translate(8 8)"/>
</clipPath>
</defs>
</svg>
