<svg width="28" height="23" viewBox="0 0 28 23" fill="none" xmlns="http://www.w3.org/2000/svg">
<path d="M3.33301 18.71C2.4235 18.71 1.736 18.4772 1.27051 18.0117C0.805013 17.5462 0.572266 16.8587 0.572266 15.9492V3.63867C0.572266 2.73633 0.805013 2.05241 1.27051 1.58691C1.736 1.12142 2.4235 0.888672 3.33301 0.888672H24.667C25.5765 0.888672 26.264 1.12142 26.7295 1.58691C27.195 2.05241 27.4277 2.73633 27.4277 3.63867V15.9492C27.4277 16.8587 27.195 17.5462 26.7295 18.0117C26.264 18.4772 25.5765 18.71 24.667 18.71H3.33301ZM3.36523 16.9805H24.6348C24.9928 16.9805 25.2578 16.8945 25.4297 16.7227C25.6087 16.5436 25.6982 16.2786 25.6982 15.9277V3.6709C25.6982 3.31999 25.6087 3.05859 25.4297 2.88672C25.2578 2.70768 24.9928 2.61816 24.6348 2.61816H3.36523C3.01432 2.61816 2.74935 2.70768 2.57031 2.88672C2.39128 3.05859 2.30176 3.31999 2.30176 3.6709V15.9277C2.30176 16.2786 2.39128 16.5436 2.57031 16.7227C2.74935 16.8945 3.01432 16.9805 3.36523 16.9805ZM8.59668 22.3516C8.36035 22.3516 8.15625 22.2656 7.98438 22.0938C7.8125 21.929 7.72656 21.7249 7.72656 21.4814C7.72656 21.2451 7.8125 21.041 7.98438 20.8691C8.15625 20.6973 8.36035 20.6113 8.59668 20.6113H19.4033C19.6396 20.6113 19.8438 20.6973 20.0156 20.8691C20.1875 21.041 20.2734 21.2451 20.2734 21.4814C20.2734 21.7249 20.1875 21.929 20.0156 22.0938C19.8438 22.2656 19.6396 22.3516 19.4033 22.3516H8.59668ZM17.2441 7.83887L14.7197 8.45117C14.598 8.47982 14.512 8.52995 14.4619 8.60156C14.4118 8.67318 14.3867 8.80566 14.3867 8.99902V12.6943C14.3867 13.4749 14.1504 14.1123 13.6777 14.6064C13.2051 15.1006 12.5856 15.3477 11.8193 15.3477C11.2751 15.3477 10.8418 15.2008 10.5195 14.9072C10.2044 14.6136 10.0469 14.2376 10.0469 13.7793C10.0469 13.2493 10.2223 12.834 10.5732 12.5332C10.9313 12.2324 11.3538 12.0176 11.8408 11.8887L12.8291 11.6309C13.1012 11.5521 13.266 11.4733 13.3232 11.3945C13.3877 11.3158 13.4199 11.1546 13.4199 10.9111V6.07715C13.4199 5.75488 13.4593 5.54362 13.5381 5.44336C13.624 5.3431 13.7995 5.26074 14.0645 5.19629L17.2012 4.42285C17.4876 4.35124 17.6774 4.3584 17.7705 4.44434C17.8636 4.52311 17.9102 4.66634 17.9102 4.87402V6.97949C17.9102 7.2946 17.8636 7.50228 17.7705 7.60254C17.6774 7.69564 17.502 7.77441 17.2441 7.83887Z" fill="white"/>
</svg>
