<svg width="26" height="23" viewBox="0 0 26 23" fill="none" xmlns="http://www.w3.org/2000/svg">
<path d="M5.69531 22.6211C4.92904 22.6211 4.33105 22.4134 3.90137 21.998C3.47884 21.5827 3.26758 20.999 3.26758 20.2471V8.37695L4.99707 7.20605V19.8066C4.99707 20.1576 5.08659 20.4261 5.26562 20.6123C5.45182 20.7985 5.7168 20.8916 6.06055 20.8916H19.8643C20.208 20.8916 20.4694 20.7985 20.6484 20.6123C20.8275 20.4261 20.917 20.1576 20.917 19.8066V7.19531L22.6465 8.37695V20.2471C22.6465 20.999 22.4352 21.5827 22.0127 21.998C21.5902 22.4134 20.9958 22.6211 20.2295 22.6211H5.69531ZM0.173828 10.665C0.173828 10.3857 0.288411 10.153 0.517578 9.9668L11.7109 0.567383C12.112 0.230794 12.5417 0.0625 13 0.0625C13.4655 0.0625 13.8988 0.230794 14.2998 0.567383L25.4824 9.9668C25.7044 10.153 25.8154 10.3965 25.8154 10.6973C25.8154 10.9551 25.7259 11.1592 25.5469 11.3096C25.3678 11.4528 25.153 11.5244 24.9023 11.5244C24.752 11.5244 24.6123 11.4886 24.4834 11.417C24.3617 11.3454 24.2471 11.2666 24.1396 11.1807L13.3867 2.15723C13.265 2.0498 13.1361 1.99609 13 1.99609C12.8711 1.99609 12.7458 2.0498 12.624 2.15723L1.87109 11.1807C1.75651 11.2666 1.63477 11.3454 1.50586 11.417C1.38411 11.4886 1.24805 11.5244 1.09766 11.5244C0.811198 11.5244 0.585612 11.4385 0.420898 11.2666C0.256185 11.0876 0.173828 10.887 0.173828 10.665ZM19.9502 5.82031V3.13477C19.9502 2.89844 20.0218 2.71224 20.165 2.57617C20.3083 2.43294 20.4945 2.36133 20.7236 2.36133H21.873C22.1094 2.36133 22.2956 2.43294 22.4316 2.57617C22.5749 2.71224 22.6465 2.89844 22.6465 3.13477V8.09766L19.9502 5.82031ZM16.04 11.3418L13.4941 11.9541C13.3724 11.9827 13.2865 12.0329 13.2363 12.1045C13.1862 12.1761 13.1611 12.3122 13.1611 12.5127V16.2402C13.1611 17.028 12.9212 17.6725 12.4414 18.1738C11.9616 18.6751 11.335 18.9258 10.5615 18.9258C10.0173 18.9258 9.58398 18.7754 9.26172 18.4746C8.93945 18.1738 8.77832 17.7943 8.77832 17.3359C8.77832 16.806 8.95736 16.3906 9.31543 16.0898C9.6735 15.7819 10.0996 15.5635 10.5938 15.4346L11.5928 15.166C11.8649 15.0944 12.0296 15.0192 12.0869 14.9404C12.1514 14.8545 12.1836 14.6898 12.1836 14.4463V9.55859C12.1836 9.23633 12.223 9.02507 12.3018 8.9248C12.3877 8.81738 12.5632 8.73145 12.8281 8.66699L15.9971 7.88281C16.2835 7.8112 16.4733 7.81836 16.5664 7.9043C16.6667 7.98307 16.7168 8.1263 16.7168 8.33398V10.4717C16.7168 10.7796 16.6667 10.9873 16.5664 11.0947C16.4733 11.195 16.2979 11.2773 16.04 11.3418Z" fill="white"/>
</svg>
