<svg width="22" height="22" viewBox="0 0 22 22" fill="none" xmlns="http://www.w3.org/2000/svg">
<path d="M0 11.2441C0 9.73307 0.282878 8.3151 0.848633 6.99023C1.42155 5.66536 2.21289 4.49805 3.22266 3.48828C4.23242 2.47135 5.39974 1.67643 6.72461 1.10352C8.05664 0.530599 9.48177 0.244141 11 0.244141C12.5182 0.244141 13.9398 0.530599 15.2646 1.10352C16.5967 1.67643 17.7676 2.47135 18.7773 3.48828C19.7871 4.49805 20.5749 5.66536 21.1406 6.99023C21.7135 8.3151 22 9.73307 22 11.2441C22 12.748 21.7135 14.166 21.1406 15.498C20.5677 16.8301 19.7907 17.9902 18.8096 18.9785C18.6663 19.1289 18.5303 19.1253 18.4014 18.9678L17.918 18.4199C17.7962 18.2839 17.7998 18.1478 17.9287 18.0117C18.7738 17.138 19.4434 16.1211 19.9375 14.9609C20.4388 13.7936 20.6895 12.5547 20.6895 11.2441C20.6895 9.91927 20.4352 8.67318 19.9268 7.50586C19.4255 6.33854 18.7272 5.31087 17.832 4.42285C16.944 3.52767 15.9128 2.82943 14.7383 2.32812C13.571 1.81966 12.3249 1.56543 11 1.56543C9.67513 1.56543 8.42546 1.81966 7.25098 2.32812C6.08366 2.82943 5.05241 3.52767 4.15723 4.42285C3.26921 5.31087 2.57096 6.33854 2.0625 7.50586C1.5612 8.67318 1.31055 9.91927 1.31055 11.2441C1.31055 12.5547 1.55762 13.7936 2.05176 14.9609C2.5459 16.1211 3.21908 17.138 4.07129 18.0117C4.2002 18.1478 4.20378 18.2839 4.08203 18.4199L3.59863 18.9678C3.46973 19.1253 3.33366 19.1289 3.19043 18.9785C2.20215 17.9902 1.42155 16.8301 0.848633 15.498C0.282878 14.166 0 12.748 0 11.2441ZM3.12598 11.2441C3.12598 10.1628 3.33008 9.14941 3.73828 8.2041C4.14648 7.25163 4.71224 6.41374 5.43555 5.69043C6.15885 4.96712 6.99316 4.40137 7.93848 3.99316C8.89095 3.5778 9.91146 3.37012 11 3.37012C12.0814 3.37012 13.0983 3.5778 14.0508 3.99316C15.0033 4.40137 15.8411 4.96712 16.5645 5.69043C17.2878 6.41374 17.8535 7.25163 18.2617 8.2041C18.6699 9.14941 18.874 10.1628 18.874 11.2441C18.874 12.2826 18.6842 13.2637 18.3047 14.1875C17.9251 15.1042 17.4023 15.917 16.7363 16.626C16.6003 16.7764 16.4642 16.7764 16.3281 16.626L15.834 16.0781C15.7122 15.9492 15.7158 15.8096 15.8447 15.6592C16.3747 15.0791 16.79 14.4131 17.0908 13.6611C17.3988 12.902 17.5527 12.0964 17.5527 11.2441C17.5527 10.349 17.3809 9.50749 17.0371 8.71973C16.7005 7.9248 16.2279 7.22656 15.6191 6.625C15.0176 6.02344 14.3193 5.55078 13.5244 5.20703C12.7367 4.86328 11.8952 4.69141 11 4.69141C10.0977 4.69141 9.24902 4.86328 8.4541 5.20703C7.66634 5.55078 6.97168 6.02344 6.37012 6.625C5.76855 7.22656 5.2959 7.9248 4.95215 8.71973C4.61556 9.50749 4.44727 10.349 4.44727 11.2441C4.44727 12.0964 4.59766 12.902 4.89844 13.6611C5.20638 14.4131 5.62533 15.0827 6.15527 15.6699C6.29134 15.8275 6.29492 15.9671 6.16602 16.0889L5.68262 16.626C5.53939 16.7764 5.39974 16.7764 5.26367 16.626C4.59766 15.917 4.07487 15.1042 3.69531 14.1875C3.31576 13.2637 3.12598 12.2826 3.12598 11.2441ZM4.0498 20.998L10.5273 13.6611C10.6491 13.5179 10.8031 13.4463 10.9893 13.4463C11.1755 13.4463 11.3294 13.5179 11.4512 13.6611L17.9395 20.998C18.097 21.1771 18.1328 21.3669 18.0469 21.5674C17.9681 21.7751 17.8034 21.8789 17.5527 21.8789H4.42578C4.17513 21.8789 4.00684 21.7751 3.9209 21.5674C3.84212 21.3669 3.88509 21.1771 4.0498 20.998ZM6.25195 11.2441C6.25195 10.3776 6.4668 9.58626 6.89648 8.87012C7.32617 8.14681 7.89909 7.57031 8.61523 7.14062C9.33138 6.71094 10.1263 6.49609 11 6.49609C11.8737 6.49609 12.6686 6.71094 13.3848 7.14062C14.1009 7.57031 14.6738 8.14681 15.1035 8.87012C15.5332 9.58626 15.748 10.3776 15.748 11.2441C15.748 11.8099 15.6514 12.3506 15.458 12.8662C15.2718 13.3747 15.0068 13.8366 14.6631 14.252C14.5342 14.4167 14.3981 14.4167 14.2549 14.252L13.75 13.7363C13.6283 13.6074 13.6211 13.4642 13.7285 13.3066C13.9505 13.0202 14.1224 12.7015 14.2441 12.3506C14.3659 11.9997 14.4268 11.6309 14.4268 11.2441C14.4268 10.6211 14.2692 10.0518 13.9541 9.53613C13.6462 9.01335 13.2308 8.59798 12.708 8.29004C12.1924 7.97493 11.623 7.81738 11 7.81738C10.377 7.81738 9.80404 7.97493 9.28125 8.29004C8.76562 8.59798 8.35026 9.01335 8.03516 9.53613C7.72721 10.0518 7.57324 10.6211 7.57324 11.2441C7.57324 11.6309 7.63411 11.9997 7.75586 12.3506C7.8776 12.7015 8.04948 13.0202 8.27148 13.3066C8.37891 13.4642 8.37174 13.6038 8.25 13.7256L7.74512 14.252C7.60189 14.4095 7.46582 14.4095 7.33691 14.252C6.99316 13.8366 6.72461 13.3747 6.53125 12.8662C6.34505 12.3506 6.25195 11.8099 6.25195 11.2441Z" fill="white"/>
</svg>
