<svg width="31" height="30" viewBox="0 0 31 30" fill="none" xmlns="http://www.w3.org/2000/svg">
<path d="M24.241 9.86261C25.2251 10.8935 25.8924 12.1854 26.1635 13.5846C26.4346 14.9838 26.2982 16.4314 25.7703 17.7553C25.2425 19.0791 24.3456 20.2235 23.1861 21.0524C22.0267 21.8812 20.6536 22.3596 19.2302 22.4306L18.86 22.4399L12.7351 22.4381L14.8703 24.5752C15.0244 24.7291 15.1196 24.9321 15.1393 25.149C15.159 25.3659 15.102 25.5827 14.9782 25.7619L14.8703 25.8902C14.7165 26.0443 14.5134 26.1395 14.2966 26.1592C14.0797 26.1789 13.8628 26.1219 13.6837 25.9981L13.5553 25.8902L9.83161 22.1665C9.67783 22.0124 9.583 21.8092 9.56362 21.5924C9.54425 21.3755 9.60157 21.1588 9.72559 20.9798L9.83161 20.8515L13.5553 17.1278C13.7194 16.963 13.9392 16.8656 14.1714 16.8549C14.4037 16.8441 14.6315 16.9208 14.8101 17.0697C14.9886 17.2186 15.1049 17.429 15.136 17.6594C15.1672 17.8898 15.1109 18.1235 14.9782 18.3144L14.8703 18.4446L12.7351 20.5781H18.86C20.283 20.5782 21.6523 20.0346 22.6878 19.0586C23.7233 18.0826 24.3468 16.7478 24.4307 15.3273L24.44 14.9999C24.4423 13.5309 23.8632 12.1207 22.8293 11.0772C22.6596 10.9054 22.5633 10.6744 22.5608 10.4329C22.5584 10.1914 22.65 9.95849 22.8162 9.78332C22.9824 9.60816 23.2103 9.50452 23.4515 9.49432C23.6928 9.48413 23.9286 9.56817 24.109 9.72869L24.2429 9.86261H24.241ZM16.5983 4.00175L16.7285 4.10777L20.4503 7.83149L20.5582 7.96169C20.6654 8.11699 20.7228 8.30123 20.7228 8.48993C20.7228 8.67863 20.6654 8.86286 20.5582 9.01817L20.4503 9.14837L16.7285 12.8702L16.5983 12.9781C16.443 13.0853 16.2587 13.1427 16.07 13.1427C15.8813 13.1427 15.6971 13.0853 15.5418 12.9781L15.4116 12.8702L15.3056 12.74C15.1984 12.5847 15.141 12.4005 15.141 12.2118C15.141 12.0231 15.1984 11.8389 15.3056 11.6835L15.4116 11.5533L17.5469 9.41993H11.42C9.99676 9.41985 8.62723 9.96365 7.59168 10.9401C6.55614 11.9165 5.93285 13.2517 5.84935 14.6726L5.84005 14.9999C5.84005 16.5251 6.45199 17.9052 7.44151 18.9134C7.5982 19.0923 7.68039 19.3244 7.67118 19.5621C7.66197 19.7997 7.56207 20.0248 7.392 20.1911C7.22193 20.3574 6.99463 20.4521 6.75682 20.456C6.51902 20.4598 6.28879 20.3724 6.11347 20.2116C5.10913 19.1885 4.4218 17.897 4.13417 16.4924C3.84653 15.0879 3.97084 13.6301 4.49214 12.2946C5.01343 10.959 5.90952 9.80249 7.07259 8.96418C8.23566 8.12587 9.61617 7.64146 11.048 7.56923L11.42 7.55993L17.5469 7.55807L15.4116 5.42465L15.3056 5.29445C15.1831 5.11542 15.127 4.89921 15.1471 4.68322C15.1672 4.46723 15.2621 4.26504 15.4155 4.11166C15.5689 3.95827 15.7711 3.86333 15.9871 3.84325C16.2031 3.82318 16.4193 3.87925 16.5983 4.00175Z" fill="#B3B3B3"/>
</svg>
