<svg width="20" height="21" viewBox="0 0 20 21" fill="none" xmlns="http://www.w3.org/2000/svg">
<path d="M2.1582 9.37402C1.47786 9.37402 0.96582 9.20215 0.62207 8.8584C0.27832 8.50749 0.106445 7.97754 0.106445 7.26855V2.4668C0.106445 1.75781 0.27832 1.23145 0.62207 0.887695C0.96582 0.543945 1.47786 0.37207 2.1582 0.37207H7.05664C7.73698 0.37207 8.24902 0.543945 8.59277 0.887695C8.93652 1.23145 9.1084 1.75781 9.1084 2.4668V7.26855C9.1084 7.97754 8.93652 8.50749 8.59277 8.8584C8.24902 9.20215 7.73698 9.37402 7.05664 9.37402H2.1582ZM2.17969 7.85938H7.02441C7.21061 7.85938 7.35026 7.80924 7.44336 7.70898C7.54362 7.60872 7.59375 7.46191 7.59375 7.26855V2.4668C7.59375 2.27344 7.54362 2.13021 7.44336 2.03711C7.35026 1.93685 7.21061 1.88672 7.02441 1.88672H2.17969C1.99349 1.88672 1.85384 1.93685 1.76074 2.03711C1.66764 2.13021 1.62109 2.27344 1.62109 2.4668V7.26855C1.62109 7.46191 1.66764 7.60872 1.76074 7.70898C1.85384 7.80924 1.99349 7.85938 2.17969 7.85938ZM12.9434 9.37402C12.2559 9.37402 11.7402 9.20215 11.3965 8.8584C11.0527 8.50749 10.8809 7.97754 10.8809 7.26855V2.4668C10.8809 1.75781 11.0527 1.23145 11.3965 0.887695C11.7402 0.543945 12.2559 0.37207 12.9434 0.37207H17.8311C18.5114 0.37207 19.0234 0.543945 19.3672 0.887695C19.7109 1.23145 19.8828 1.75781 19.8828 2.4668V7.26855C19.8828 7.97754 19.7109 8.50749 19.3672 8.8584C19.0234 9.20215 18.5114 9.37402 17.8311 9.37402H12.9434ZM12.9648 7.85938H17.8096C18.0029 7.85938 18.1426 7.80924 18.2285 7.70898C18.3216 7.60872 18.3682 7.46191 18.3682 7.26855V2.4668C18.3682 2.27344 18.3216 2.13021 18.2285 2.03711C18.1426 1.93685 18.0029 1.88672 17.8096 1.88672H12.9648C12.7715 1.88672 12.6283 1.93685 12.5352 2.03711C12.4421 2.13021 12.3955 2.27344 12.3955 2.4668V7.26855C12.3955 7.46191 12.4421 7.60872 12.5352 7.70898C12.6283 7.80924 12.7715 7.85938 12.9648 7.85938ZM2.1582 20.1484C1.47786 20.1484 0.96582 19.9766 0.62207 19.6328C0.27832 19.2891 0.106445 18.7627 0.106445 18.0537V13.2412C0.106445 12.5394 0.27832 12.0166 0.62207 11.6729C0.96582 11.3219 1.47786 11.1465 2.1582 11.1465H7.05664C7.73698 11.1465 8.24902 11.3219 8.59277 11.6729C8.93652 12.0166 9.1084 12.5394 9.1084 13.2412V18.0537C9.1084 18.7627 8.93652 19.2891 8.59277 19.6328C8.24902 19.9766 7.73698 20.1484 7.05664 20.1484H2.1582ZM2.17969 18.6338H7.02441C7.21061 18.6338 7.35026 18.5837 7.44336 18.4834C7.54362 18.3903 7.59375 18.2471 7.59375 18.0537V13.252C7.59375 13.0514 7.54362 12.9046 7.44336 12.8115C7.35026 12.7113 7.21061 12.6611 7.02441 12.6611H2.17969C1.99349 12.6611 1.85384 12.7113 1.76074 12.8115C1.66764 12.9046 1.62109 13.0514 1.62109 13.252V18.0537C1.62109 18.2471 1.66764 18.3903 1.76074 18.4834C1.85384 18.5837 1.99349 18.6338 2.17969 18.6338ZM12.9434 20.1484C12.2559 20.1484 11.7402 19.9766 11.3965 19.6328C11.0527 19.2891 10.8809 18.7627 10.8809 18.0537V13.2412C10.8809 12.5394 11.0527 12.0166 11.3965 11.6729C11.7402 11.3219 12.2559 11.1465 12.9434 11.1465H17.8311C18.5114 11.1465 19.0234 11.3219 19.3672 11.6729C19.7109 12.0166 19.8828 12.5394 19.8828 13.2412V18.0537C19.8828 18.7627 19.7109 19.2891 19.3672 19.6328C19.0234 19.9766 18.5114 20.1484 17.8311 20.1484H12.9434ZM12.9648 18.6338H17.8096C18.0029 18.6338 18.1426 18.5837 18.2285 18.4834C18.3216 18.3903 18.3682 18.2471 18.3682 18.0537V13.252C18.3682 13.0514 18.3216 12.9046 18.2285 12.8115C18.1426 12.7113 18.0029 12.6611 17.8096 12.6611H12.9648C12.7715 12.6611 12.6283 12.7113 12.5352 12.8115C12.4421 12.9046 12.3955 13.0514 12.3955 13.252V18.0537C12.3955 18.2471 12.4421 18.3903 12.5352 18.4834C12.6283 18.5837 12.7715 18.6338 12.9648 18.6338Z" fill="white"/>
</svg>
