<svg width="31" height="30" viewBox="0 0 31 30" fill="none" xmlns="http://www.w3.org/2000/svg">
<path d="M24.4419 4.76989C24.4419 4.52324 24.5399 4.28669 24.7143 4.11228C24.8887 3.93787 25.1252 3.83989 25.3719 3.83989C25.6185 3.83989 25.8551 3.93787 26.0295 4.11228C26.2039 4.28669 26.3019 4.52324 26.3019 4.76989V25.2299C26.3019 25.4765 26.2039 25.7131 26.0295 25.8875C25.8551 26.0619 25.6185 26.1599 25.3719 26.1599C25.1252 26.1599 24.8887 26.0619 24.7143 25.8875C24.5399 25.7131 24.4419 25.4765 24.4419 25.2299V4.76989ZM3.97909 6.16861C3.97909 4.30675 6.05857 3.20005 7.6033 4.24072L20.6261 13.0125C20.9407 13.2246 21.1987 13.5105 21.3774 13.8453C21.5561 14.1801 21.6502 14.5535 21.6514 14.933C21.6526 15.3125 21.5609 15.6865 21.3843 16.0224C21.2076 16.3582 20.9515 16.6458 20.6382 16.8599L7.61539 25.7507C6.07159 26.8034 3.97909 25.6986 3.97909 23.8293V6.17047V6.16861Z" fill="#B3B3B3"/>
</svg>
