<svg width="63" height="62" viewBox="0 0 63 62" fill="none" xmlns="http://www.w3.org/2000/svg">
<path d="M31.5 5.16678C26.3906 5.16678 21.396 6.68188 17.1477 9.52048C12.8995 12.3591 9.58835 16.3937 7.63309 21.1141C5.67783 25.8345 5.16624 31.0288 6.16303 36.0399C7.15981 41.0511 9.6202 45.6542 13.2331 49.267C16.8459 52.8799 21.449 55.3403 26.4601 56.3371C31.4713 57.3339 36.6655 56.8223 41.386 54.867C46.1064 52.9117 50.141 49.6006 52.9796 45.3523C55.8182 41.1041 57.3333 36.1095 57.3333 31.0001C57.3333 27.6076 56.6651 24.2484 55.3669 21.1141C54.0686 17.9799 52.1658 15.132 49.7669 12.7332C47.3681 10.3343 44.5202 8.43147 41.386 7.13322C38.2517 5.83498 34.8925 5.16678 31.5 5.16678ZM26.3333 42.6251V19.3751L41.8333 31.0001L26.3333 42.6251Z" fill="white"/>
</svg>
