<svg width="31" height="30" viewBox="0 0 31 30" fill="none" xmlns="http://www.w3.org/2000/svg">
<path d="M6.55814 4.76989C6.55814 4.52324 6.46016 4.28669 6.28575 4.11228C6.11134 3.93787 5.87479 3.83989 5.62814 3.83989C5.38149 3.83989 5.14494 3.93787 4.97053 4.11228C4.79612 4.28669 4.69814 4.52324 4.69814 4.76989V25.2299C4.69814 25.4765 4.79612 25.7131 4.97053 25.8875C5.14494 26.0619 5.38149 26.1599 5.62814 26.1599C5.87479 26.1599 6.11134 26.0619 6.28575 25.8875C6.46016 25.7131 6.55814 25.4765 6.55814 25.2299V4.76989ZM27.0209 6.16861C27.0209 4.30675 24.9414 3.20005 23.3967 4.24072L10.3739 13.0125C10.0593 13.2246 9.80132 13.5105 9.6226 13.8453C9.44388 14.1801 9.34982 14.5535 9.34862 14.933C9.34743 15.3125 9.43915 15.6865 9.61576 16.0224C9.79238 16.3582 10.0485 16.6458 10.3618 16.8599L23.3846 25.7507C24.9284 26.8034 27.0209 25.6986 27.0209 23.8293V6.17047V6.16861Z" fill="#B3B3B3"/>
</svg>
