<svg width="31" height="44" viewBox="0 0 31 44" fill="none" xmlns="http://www.w3.org/2000/svg">
<path d="M28.608 20.852C28.6945 20.9384 28.7631 21.041 28.8099 21.1539C28.8567 21.2668 28.8808 21.3878 28.8808 21.51C28.8808 21.6322 28.8567 21.7533 28.8099 21.8662C28.7631 21.9791 28.6945 22.0816 28.608 22.168L25.818 24.958C25.6879 25.0882 25.5222 25.1769 25.3417 25.2128C25.1612 25.2488 24.9741 25.2304 24.804 25.1599C24.634 25.0895 24.4887 24.9702 24.3865 24.8171C24.2844 24.664 24.2299 24.4841 24.23 24.3V22.44C22.9166 22.4216 21.6259 22.0949 20.4618 21.4863C19.2978 20.8777 18.2929 20.0043 17.5282 18.9362L12.6783 12.1472C12.0754 11.3045 11.2804 10.6176 10.3592 10.1433C9.43792 9.66901 8.41692 9.42108 7.38076 9.42002H4.70003C4.45338 9.42002 4.21683 9.32204 4.04243 9.14763C3.86802 8.97322 3.77003 8.73667 3.77003 8.49002C3.77003 8.24337 3.86802 8.00682 4.04243 7.83241C4.21683 7.658 4.45338 7.56002 4.70003 7.56002H7.38076C8.71286 7.56113 10.0255 7.87963 11.21 8.48915C12.3945 9.09867 13.4166 9.98166 14.1918 11.065L19.0418 17.854C19.6338 18.6818 20.4114 19.3595 21.3123 19.8329C22.2132 20.3063 23.2125 20.5621 24.23 20.58V18.72C24.2299 18.536 24.2844 18.356 24.3865 18.203C24.4887 18.0499 24.634 17.9306 24.804 17.8601C24.9741 17.7897 25.1612 17.7713 25.3417 17.8072C25.5222 17.8431 25.6879 17.9318 25.818 18.062L28.608 20.852ZM17.6038 12.5588C17.7032 12.6298 17.8156 12.6805 17.9345 12.708C18.0535 12.7356 18.1768 12.7394 18.2972 12.7194C18.4177 12.6993 18.533 12.6557 18.6367 12.591C18.7403 12.5264 18.8301 12.4419 18.9011 12.3425L19.0406 12.1484C19.6325 11.32 20.4102 10.6417 21.3113 10.1679C22.2125 9.69414 23.2121 9.438 24.23 9.42002V11.28C24.2299 11.4641 24.2844 11.644 24.3865 11.7971C24.4887 11.9502 24.634 12.0695 24.804 12.1399C24.9741 12.2104 25.1612 12.2288 25.3417 12.1928C25.5222 12.1569 25.6879 12.0682 25.818 11.938L28.608 9.148C28.6945 9.06162 28.7631 8.95905 28.8099 8.84615C28.8567 8.73325 28.8808 8.61224 28.8808 8.49002C28.8808 8.3678 28.8567 8.24679 28.8099 8.13389C28.7631 8.02098 28.6945 7.91842 28.608 7.83204L25.818 5.04204C25.6879 4.91183 25.5222 4.82314 25.3417 4.7872C25.1612 4.75125 24.9741 4.76967 24.804 4.84012C24.634 4.91057 24.4887 5.02988 24.3865 5.18296C24.2844 5.33603 24.2299 5.51598 24.23 5.70002V7.56002C22.9166 7.57847 21.6259 7.90514 20.4618 8.51372C19.2978 9.12231 18.2929 9.99578 17.5282 11.0638L17.3887 11.2579C17.3171 11.3574 17.2659 11.47 17.2379 11.5892C17.21 11.7085 17.2059 11.8322 17.2259 11.953C17.2459 12.0739 17.2895 12.1897 17.3544 12.2936C17.4192 12.3976 17.504 12.4877 17.6038 12.5588ZM14.1163 17.4413C14.0169 17.3703 13.9045 17.3196 13.7855 17.292C13.6665 17.2645 13.5433 17.2606 13.4228 17.2807C13.3024 17.3008 13.187 17.3444 13.0834 17.409C12.9798 17.4737 12.8899 17.5581 12.8189 17.6575L12.6794 17.8516C12.0766 18.6947 11.2815 19.382 10.36 19.8565C9.43852 20.331 8.41722 20.579 7.38076 20.58H4.70003C4.45338 20.58 4.21683 20.678 4.04243 20.8524C3.86802 21.0268 3.77003 21.2634 3.77003 21.51C3.77003 21.7567 3.86802 21.9932 4.04243 22.1676C4.21683 22.342 4.45338 22.44 4.70003 22.44H7.38076C8.71286 22.4389 10.0255 22.1204 11.21 21.5109C12.3945 20.9014 13.4166 20.0184 14.1918 18.9351L14.3313 18.7409C14.4028 18.6416 14.4538 18.529 14.4817 18.4099C14.5095 18.2907 14.5136 18.1672 14.4936 18.0465C14.4736 17.9257 14.43 17.8101 14.3653 17.7063C14.3005 17.6024 14.2159 17.5124 14.1163 17.4413Z" fill="#1DB954"/>
</svg>
